<?xml version="1.0" encoding="utf-8"?>
<!-- Generator: Adobe Illustrator 25.3.1, SVG Export Plug-In . SVG Version: 6.00 Build 0)  -->
<svg version="1.1" id="Calque_1" xmlns="http://www.w3.org/2000/svg" xmlns:xlink="http://www.w3.org/1999/xlink" x="0px" y="0px"
	 viewBox="0 0 240 130" style="enable-background:new 0 0 240 130;" xml:space="preserve">
<style type="text/css">
	.st0{fill:#965A50;}
	.st1{fill:#EBC9A0;}
	.st2{fill:#AF6E5A;}
	.st3{fill:#FAEBC8;}
	.st4{fill:#F5DCB4;}
	.st5{fill:#5D5360;}
	.st6{fill:#4B3F4E;}
	.st7{fill:#E6646E;}
	.st8{fill:#FFFFFF;}
	.st9{fill:#FF8087;}
	.st10{fill:none;}
	.st11{fill:#27A80C;}
	.st12{font-family:'MyriadPro-Regular';}
	.st13{font-size:26px;}
</style>
<circle class="st0" cx="88.5" cy="42.4" r="10.6"/>
<circle class="st1" cx="88.5" cy="42.4" r="6.6"/>
<circle class="st0" cx="149.7" cy="42.4" r="10.6"/>
<circle class="st1" cx="149.7" cy="42.4" r="6.6"/>
<path class="st2" d="M149.1,48.7c-1.3-2.3-2.1-4.9-2.1-7.6v0c0-11.6-7.1-21.6-17.3-25.8v-4.8l-6.6,2.7l-1.3-5.3
	c-3.5,1.2-6.5,3.6-8.7,6c-12.5,2.8-21.8,13.9-21.8,27.2c0,2.7-0.8,5.3-2.1,7.6c-2,3.5-3.2,7.5-3.2,11.6c0,15,14.9,27.2,33.2,27.2
	s33.2-12.2,33.2-27.2C152.3,56.2,151.2,52.3,149.1,48.7z"/>
<path class="st0" d="M100.5,65.1c0-4.9,1.1-9.5,3.2-13.6c1.3-2.7,2.1-5.8,2.1-8.9c0-13.5,7.1-25.1,17.1-30l-1.2-4.8
	c-3.5,1.2-6.5,3.6-8.7,6c-12.5,2.8-21.8,13.9-21.8,27.2c0,2.7-0.8,5.3-2.1,7.6c-2,3.5-3.2,7.5-3.2,11.6c0,12.1,9.7,22.4,23.1,25.9
	C103.7,80.7,100.5,73.3,100.5,65.1z"/>
<path class="st3" d="M119.1,82.3c11,0,19.9-7.1,19.9-15.9c0-1.8-0.4-3.6-1.1-5.2c-1-2.4-0.7-5.1,1-7.1c2.1-2.5,3.2-5.9,2.6-9.6
	c-0.8-5-4.9-9.1-9.9-9.9c-3.8-0.6-7.4,0.6-10,3c-0.7,0.7-1.7,1-2.6,1c-0.9,0-1.9-0.3-2.6-1c-2.6-2.3-6.1-3.6-10-3
	c-5,0.8-9.1,4.8-9.9,9.9c-0.6,3.7,0.5,7.1,2.6,9.6c1.7,2,2,4.7,1,7.1c-0.7,1.6-1.1,3.4-1.1,5.2C99.2,75.2,108.1,82.3,119.1,82.3z"/>
<path class="st4" d="M99.2,66.3c0,3,1,5.8,2.8,8.1c-1-3-1.5-6.1-1.5-9.4c0-4.9,1.1-9.5,3.2-13.6c1.3-2.7,2.1-5.8,2.1-8.9
	c0-2.8,0.3-5.5,0.9-8.1c0,0-0.1,0-0.1,0c-5,0.8-9.1,4.8-9.9,9.9c-0.6,3.7,0.5,7.1,2.6,9.6c1.7,2,2,4.7,1,7.1
	C99.6,62.8,99.2,64.5,99.2,66.3z"/>
<g>
	<path class="st5" d="M116.4,59.7c-0.2,0-0.4,0-0.6-0.1l-2.7-1.3c-0.7-0.3-0.9-1.1-0.6-1.8c0.3-0.7,1.1-0.9,1.8-0.6l2.7,1.3
		c0.7,0.3,0.9,1.1,0.6,1.8C117.4,59.4,116.9,59.7,116.4,59.7z"/>
	<path class="st5" d="M121.8,59.7c-0.5,0-1-0.3-1.2-0.7c-0.3-0.7-0.1-1.5,0.6-1.8l2.7-1.3c0.7-0.3,1.5-0.1,1.8,0.6
		c0.3,0.7,0.1,1.5-0.6,1.8l-2.7,1.3C122.2,59.7,122,59.7,121.8,59.7z"/>
</g>
<path class="st6" d="M107.2,65c-0.8,0-1.4,0.7-1.3,1.5c0.8,5.9,6.4,10.4,13.2,10.4c6.8,0,12.4-4.6,13.2-10.4
	c0.1-0.8-0.5-1.5-1.3-1.5H107.2z"/>
<path class="st7" d="M111.4,74.8c2.2,1.4,4.8,2.2,7.7,2.2s5.5-0.8,7.7-2.2c-1-3.3-4-5.8-7.7-5.8C115.5,69,112.4,71.5,111.4,74.8z"/>
<path class="st6" d="M107.1,50.4L107.1,50.4c-2.2,0-4-1.8-4-4v-1.3c0-2.2,1.8-4,4-4l0,0c2.2,0,4,1.8,4,4v1.3
	C111.1,48.6,109.3,50.4,107.1,50.4z"/>
<path class="st5" d="M107.1,41.1v4.7c0,1.1,0.9,2,2,2c1.1,0,2-0.9,2-2v-0.7C111.1,42.9,109.3,41.1,107.1,41.1z"/>
<circle class="st8" cx="107.1" cy="43.8" r="1.3"/>
<path class="st6" d="M131.1,50.4L131.1,50.4c-2.2,0-4-1.8-4-4v-1.3c0-2.2,1.8-4,4-4l0,0c2.2,0,4,1.8,4,4v1.3
	C135,48.6,133.3,50.4,131.1,50.4z"/>
<path class="st5" d="M131.1,41.1v4.7c0,1.1,0.9,2,2,2c1.1,0,2-0.9,2-2v-0.7C135,42.9,133.3,41.1,131.1,41.1z"/>
<circle class="st8" cx="131.1" cy="43.8" r="1.3"/>
<path class="st9" d="M119.1,77c0.4,0,0.9,0,1.3-0.1v-2.6c0-0.7-0.6-1.3-1.3-1.3c-0.7,0-1.3,0.6-1.3,1.3v2.6
	C118.2,76.9,118.6,77,119.1,77z"/>
<rect x="11.4" y="97.6" class="st10" width="240" height="39.5"/>
<text transform="matrix(1 0 0 1 11.3691 116.0135)" class="st11 st12 st13">Sans huile de palme</text>
</svg>
